<?xml version="1.0" encoding="UTF-8"?>
<svg id="katman_1" xmlns="http://www.w3.org/2000/svg" viewBox="0 0 1080 1080">
  <defs>
    <style>
      .cls-1 {
        fill: #343472;
      }

      .cls-2 {
        fill: #60629f;
      }
    </style>
  </defs>
  <path class="cls-1" d="M812.93,201.97c39.25-22.21,87.89,6.1,87.96,51.2l.75,482.27c.11,72.62-33.52,134.85-84.2,175.16-58.74,46.73-140.4,64.03-219.02,34.04l-121.91-46.52-.48-311.67,206.6,83.39c12.15,4.89,24.58,6.33,36.36,4.86,26.1-3.22,49.12-20.48,59.18-45.15,3.48-8.51,5.41-17.93,5.4-27.94l-.54-348.26c-.03-21.27,11.4-40.91,29.91-51.38h0Z"/>
  <path class="cls-2" d="M267.07,878.03c-39.25,22.21-87.89-6.1-87.96-51.2l-.75-482.27c-.11-72.62,33.52-134.85,84.2-175.16,58.74-46.72,140.4-64.03,219.02-34.03l121.91,46.51.48,311.66-206.6-83.39c-12.15-4.89-24.58-6.32-36.36-4.85-26.1,3.21-49.12,20.48-59.18,45.15-3.48,8.51-5.41,17.93-5.4,27.94l.54,348.26c.03,21.27-11.4,40.9-29.91,51.38h0Z"/>
</svg>